<svg width="130" height="30" viewBox="0 0 130 30" fill="none" xmlns="http://www.w3.org/2000/svg">
<path d="M8.35469 22.21C6.89469 22.21 5.57469 21.96 4.39469 21.46C3.23469 20.96 2.31469 20.24 1.63469 19.3C0.954688 18.36 0.604688 17.25 0.584688 15.97H5.08469C5.14469 16.83 5.44469 17.51 5.98469 18.01C6.54469 18.51 7.30469 18.76 8.26469 18.76C9.24469 18.76 10.0147 18.53 10.5747 18.07C11.1347 17.59 11.4147 16.97 11.4147 16.21C11.4147 15.59 11.2247 15.08 10.8447 14.68C10.4647 14.28 9.98469 13.97 9.40469 13.75C8.84469 13.51 8.06469 13.25 7.06469 12.97C5.70469 12.57 4.59469 12.18 3.73469 11.8C2.89469 11.4 2.16469 10.81 1.54469 10.03C0.944688 9.23 0.644688 8.17 0.644688 6.85C0.644688 5.61 0.954688 4.53 1.57469 3.61C2.19469 2.69 3.06469 1.99 4.18469 1.51C5.30469 1.01 6.58469 0.76 8.02469 0.76C10.1847 0.76 11.9347 1.29 13.2747 2.35C14.6347 3.39 15.3847 4.85 15.5247 6.73H10.9047C10.8647 6.01 10.5547 5.42 9.97469 4.96C9.41469 4.48 8.66469 4.24 7.72469 4.24C6.90469 4.24 6.24469 4.45 5.74469 4.87C5.26469 5.29 5.02469 5.9 5.02469 6.7C5.02469 7.26 5.20469 7.73 5.56469 8.11C5.94469 8.47 6.40469 8.77 6.94469 9.01C7.50469 9.23 8.28469 9.49 9.28469 9.79C10.6447 10.19 11.7547 10.59 12.6147 10.99C13.4747 11.39 14.2147 11.99 14.8347 12.79C15.4547 13.59 15.7647 14.64 15.7647 15.94C15.7647 17.06 15.4747 18.1 14.8947 19.06C14.3147 20.02 13.4647 20.79 12.3447 21.37C11.2247 21.93 9.89469 22.21 8.35469 22.21ZM24.2959 8.83V16.87C24.2959 17.43 24.4259 17.84 24.6859 18.1C24.9659 18.34 25.4259 18.46 26.0659 18.46H28.0159V22H25.3759C21.8359 22 20.0659 20.28 20.0659 16.84V8.83H18.0859V5.38H20.0659V1.27H24.2959V5.38H28.0159V8.83H24.2959ZM38.4168 22.27C36.8168 22.27 35.3768 21.92 34.0968 21.22C32.8168 20.5 31.8068 19.49 31.0668 18.19C30.3468 16.89 29.9868 15.39 29.9868 13.69C29.9868 11.99 30.3568 10.49 31.0968 9.19C31.8568 7.89 32.8868 6.89 34.1868 6.19C35.4868 5.47 36.9368 5.11 38.5368 5.11C40.1368 5.11 41.5868 5.47 42.8868 6.19C44.1868 6.89 45.2068 7.89 45.9468 9.19C46.7068 10.49 47.0868 11.99 47.0868 13.69C47.0868 15.39 46.6968 16.89 45.9168 18.19C45.1568 19.49 44.1168 20.5 42.7968 21.22C41.4968 21.92 40.0368 22.27 38.4168 22.27ZM38.4168 18.61C39.1768 18.61 39.8868 18.43 40.5468 18.07C41.2268 17.69 41.7668 17.13 42.1668 16.39C42.5668 15.65 42.7668 14.75 42.7668 13.69C42.7668 12.11 42.3468 10.9 41.5068 10.06C40.6868 9.2 39.6768 8.77 38.4768 8.77C37.2768 8.77 36.2668 9.2 35.4468 10.06C34.6468 10.9 34.2468 12.11 34.2468 13.69C34.2468 15.27 34.6368 16.49 35.4168 17.35C36.2168 18.19 37.2168 18.61 38.4168 18.61ZM54.3677 7.78C54.9077 7.02 55.6477 6.39 56.5877 5.89C57.5477 5.37 58.6377 5.11 59.8577 5.11C61.2777 5.11 62.5577 5.46 63.6977 6.16C64.8577 6.86 65.7677 7.86 66.4277 9.16C67.1077 10.44 67.4477 11.93 67.4477 13.63C67.4477 15.33 67.1077 16.84 66.4277 18.16C65.7677 19.46 64.8577 20.47 63.6977 21.19C62.5577 21.91 61.2777 22.27 59.8577 22.27C58.6377 22.27 57.5577 22.02 56.6177 21.52C55.6977 21.02 54.9477 20.39 54.3677 19.63V29.92H50.1677V5.38H54.3677V7.78ZM63.1577 13.63C63.1577 12.63 62.9477 11.77 62.5277 11.05C62.1277 10.31 61.5877 9.75 60.9077 9.37C60.2477 8.99 59.5277 8.8 58.7477 8.8C57.9877 8.8 57.2677 9 56.5877 9.4C55.9277 9.78 55.3877 10.34 54.9677 11.08C54.5677 11.82 54.3677 12.69 54.3677 13.69C54.3677 14.69 54.5677 15.56 54.9677 16.3C55.3877 17.04 55.9277 17.61 56.5877 18.01C57.2677 18.39 57.9877 18.58 58.7477 18.58C59.5277 18.58 60.2477 18.38 60.9077 17.98C61.5877 17.58 62.1277 17.01 62.5277 16.27C62.9477 15.53 63.1577 14.65 63.1577 13.63Z" fill="white"/>
<path d="M83.3397 18.01H74.9997L73.6197 22H69.2097L76.7397 1.03H81.6297L89.1597 22H84.7197L83.3397 18.01ZM82.1997 14.65L79.1697 5.89L76.1397 14.65H82.1997ZM112.614 5.14C114.654 5.14 116.294 5.77 117.534 7.03C118.794 8.27 119.424 10.01 119.424 12.25V22H115.224V12.82C115.224 11.52 114.894 10.53 114.234 9.85C113.574 9.15 112.674 8.8 111.534 8.8C110.394 8.8 109.484 9.15 108.804 9.85C108.144 10.53 107.814 11.52 107.814 12.82V22H103.614V12.82C103.614 11.52 103.284 10.53 102.624 9.85C101.964 9.15 101.064 8.8 99.9243 8.8C98.7643 8.8 97.8443 9.15 97.1643 9.85C96.5043 10.53 96.1743 11.52 96.1743 12.82V22H91.9743V5.38H96.1743V7.39C96.7143 6.69 97.4043 6.14 98.2443 5.74C99.1043 5.34 100.044 5.14 101.064 5.14C102.364 5.14 103.524 5.42 104.544 5.98C105.564 6.52 106.354 7.3 106.914 8.32C107.454 7.36 108.234 6.59 109.254 6.01C110.294 5.43 111.414 5.14 112.614 5.14ZM128.84 0.699999L128.36 15.19H124.82L124.31 0.699999H128.84ZM126.68 22.21C125.92 22.21 125.29 21.98 124.79 21.52C124.31 21.04 124.07 20.45 124.07 19.75C124.07 19.05 124.31 18.47 124.79 18.01C125.29 17.53 125.92 17.29 126.68 17.29C127.42 17.29 128.03 17.53 128.51 18.01C128.99 18.47 129.23 19.05 129.23 19.75C129.23 20.45 128.99 21.04 128.51 21.52C128.03 21.98 127.42 22.21 126.68 22.21Z" fill="#01DC82"/>
</svg>
