<svg width="47" height="23" viewBox="0 0 47 23" fill="none" xmlns="http://www.w3.org/2000/svg">
<path d="M8.61934 22.21C7.15934 22.21 5.83934 21.96 4.65934 21.46C3.49934 20.96 2.57934 20.24 1.89934 19.3C1.21934 18.36 0.869336 17.25 0.849336 15.97H5.34934C5.40934 16.83 5.70934 17.51 6.24934 18.01C6.80934 18.51 7.56934 18.76 8.52934 18.76C9.50934 18.76 10.2793 18.53 10.8393 18.07C11.3993 17.59 11.6793 16.97 11.6793 16.21C11.6793 15.59 11.4893 15.08 11.1093 14.68C10.7293 14.28 10.2493 13.97 9.66934 13.75C9.10934 13.51 8.32934 13.25 7.32934 12.97C5.96934 12.57 4.85934 12.18 3.99934 11.8C3.15934 11.4 2.42934 10.81 1.80934 10.03C1.20934 9.23 0.909336 8.17 0.909336 6.85C0.909336 5.61 1.21934 4.53 1.83934 3.61C2.45934 2.69 3.32934 1.99 4.44934 1.51C5.56934 1.01 6.84934 0.76 8.28934 0.76C10.4493 0.76 12.1993 1.29 13.5393 2.35C14.8993 3.39 15.6493 4.85 15.7893 6.73H11.1693C11.1293 6.01 10.8193 5.42 10.2393 4.96C9.67934 4.48 8.92934 4.24 7.98934 4.24C7.16934 4.24 6.50934 4.45 6.00934 4.87C5.52934 5.29 5.28934 5.9 5.28934 6.7C5.28934 7.26 5.46934 7.73 5.82934 8.11C6.20934 8.47 6.66934 8.77 7.20934 9.01C7.76934 9.23 8.54934 9.49 9.54934 9.79C10.9093 10.19 12.0193 10.59 12.8793 10.99C13.7393 11.39 14.4793 11.99 15.0993 12.79C15.7193 13.59 16.0293 14.64 16.0293 15.94C16.0293 17.06 15.7393 18.1 15.1593 19.06C14.5793 20.02 13.7293 20.79 12.6093 21.37C11.4893 21.93 10.1593 22.21 8.61934 22.21Z" fill="white"/>
<path d="M32.5106 18.01H24.1706L22.7906 22H18.3806L25.9106 1.03H30.8006L38.3306 22H33.8906L32.5106 18.01ZM31.3706 14.65L28.3406 5.89L25.3106 14.65H31.3706ZM46.5752 0.699999L46.0952 15.19H42.5552L42.0452 0.699999H46.5752ZM44.4152 22.21C43.6552 22.21 43.0252 21.98 42.5252 21.52C42.0452 21.04 41.8052 20.45 41.8052 19.75C41.8052 19.05 42.0452 18.47 42.5252 18.01C43.0252 17.53 43.6552 17.29 44.4152 17.29C45.1552 17.29 45.7652 17.53 46.2452 18.01C46.7252 18.47 46.9652 19.05 46.9652 19.75C46.9652 20.45 46.7252 21.04 46.2452 21.52C45.7652 21.98 45.1552 22.21 44.4152 22.21Z" fill="#01DC82"/>
</svg>
